<?xml version="1.0" encoding="UTF-8" standalone="no"?>
<!-- Created with Inkscape (http://www.inkscape.org/) -->

<svg
   xmlns:osb="http://www.openswatchbook.org/uri/2009/osb"
   xmlns:dc="http://purl.org/dc/elements/1.1/"
   xmlns:cc="http://creativecommons.org/ns#"
   xmlns:rdf="http://www.w3.org/1999/02/22-rdf-syntax-ns#"
   xmlns:svg="http://www.w3.org/2000/svg"
   xmlns="http://www.w3.org/2000/svg"
   xmlns:sodipodi="http://sodipodi.sourceforge.net/DTD/sodipodi-0.dtd"
   xmlns:inkscape="http://www.inkscape.org/namespaces/inkscape"
   width="37.213356mm"
   height="3.4337981mm"
   viewBox="0 0 37.213356 3.4337981"
   version="1.1"
   id="svg8"
   inkscape:version="0.92.3 (unknown)"
   sodipodi:docname="dessin.svg">
  <defs
     id="defs2">
    <linearGradient
       id="linearGradient904"
       osb:paint="solid">
      <stop
         style="stop-color:#e42d2d;stop-opacity:1"
         offset="0"
         id="stop902" />
    </linearGradient>
  </defs>
  <sodipodi:namedview
     id="base"
     pagecolor="#ffffff"
     bordercolor="#666666"
     borderopacity="1.0"
     inkscape:pageopacity="0.0"
     inkscape:pageshadow="2"
     inkscape:zoom="3.9959526"
     inkscape:cx="40.590773"
     inkscape:cy="-31.049569"
     inkscape:document-units="mm"
     inkscape:current-layer="layer1"
     showgrid="false"
     inkscape:window-width="1920"
     inkscape:window-height="1080"
     inkscape:window-x="258"
     inkscape:window-y="133"
     inkscape:window-maximized="0" />
  <metadata
     id="metadata5">
    <rdf:RDF>
      <cc:Work
         rdf:about="">
        <dc:format>image/svg+xml</dc:format>
        <dc:type
           rdf:resource="http://purl.org/dc/dcmitype/StillImage" />
        <dc:title />
      </cc:Work>
    </rdf:RDF>
  </metadata>
  <g
     inkscape:label="Calque 1"
     inkscape:groupmode="layer"
     id="layer1"
     transform="translate(-37.796125,-130.28434)">
    <path
       style="fill:#15110f;fill-opacity:1;stroke:#000000;stroke-width:1.00157475;stroke-linecap:butt;stroke-linejoin:miter;stroke-miterlimit:4;stroke-dasharray:none;stroke-opacity:1;paint-order:normal"
       d="M 211.66211,492.91406 142.90234,498.89258 213.17969,492.9375 283.45703,498.89258 214.69531,492.91406 H 213.45703 212.90234 Z M 142.90234,498.91211 211.66211,504.89062 H 213.45703 214.69531 L 283.45703,498.91211 213.17969,504.86719 Z"
       transform="scale(0.26458333)"
       id="path815"
       inkscape:connector-curvature="0" />
    <path
       style="opacity:1;fill:#15110f;fill-opacity:1;fill-rule:nonzero;stroke:#000000;stroke-width:0.29942924;stroke-miterlimit:4;stroke-dasharray:none;stroke-opacity:1;paint-order:normal"
       d="M 186.92543,502.02014 C 173.03134,500.82121 159.47731,499.67274 156.80537,499.46798 154.13343,499.26321 151.9473,499.0015 151.9473,498.8864 151.9473,498.77129 153.25898,498.58626 154.86214,498.47523 156.4653,498.36419 170.15386,497.21051 185.28116,495.9115 L 212.78534,493.54966 243.2791,496.09497 C 260.05067,497.49488 273.97466,498.71507 274.2213,498.80648 274.61396,498.95203 214.33362,504.26068 212.78534,504.21691 212.45648,504.20762 200.81953,503.21907 186.92543,502.02014 Z"
       id="path908"
       inkscape:connector-curvature="0"
       transform="scale(0.26458333)" />
    <path
       style="opacity:1;fill:#15110f;fill-opacity:1;fill-rule:nonzero;stroke:#000000;stroke-width:0.29942924;stroke-miterlimit:4;stroke-dasharray:none;stroke-opacity:1;paint-order:normal"
       d="M 212.03794,504.32779 C 212.03794,504.17714 211.32162,504.05719 210.44611,504.06124 209.5706,504.06528 208.72978,503.9946 208.57762,503.90417 208.42546,503.81374 207.6283,503.72071 206.80617,503.69743 205.98403,503.67415 204.43692,503.58157 203.36815,503.4917 202.29937,503.40183 200.685,503.27749 199.78065,503.21539 198.8763,503.1533 198.13637,503.07788 198.13637,503.0478 198.13637,503.01771 197.37605,502.95962 196.44677,502.91869 195.51748,502.87777 194.64303,502.78229 194.50354,502.70651 194.36405,502.63074 193.54376,502.58099 192.68068,502.59596 191.8176,502.61093 191.11131,502.54359 191.11115,502.44633 191.11099,502.34906 190.3373,502.24518 189.39184,502.21548 188.44638,502.18578 186.79838,502.08768 185.7296,501.99749 184.66082,501.9073 183.04645,501.7827 182.1421,501.7206 181.23775,501.65851 180.49783,501.58141 180.49783,501.54928 180.49783,501.51714 179.74295,501.46242 178.82033,501.42766 177.89771,501.3929 177.02325,501.2991 176.8771,501.2192 176.73095,501.13931 175.90521,501.08619 175.04213,501.10116 174.17905,501.11613 173.47276,501.0467 173.4726,500.94686 173.47244,500.84703 172.75598,500.76865 171.88047,500.77269 171.00496,500.77674 170.16414,500.70419 170.01198,500.61148 169.85982,500.51877 169.04943,500.44952 168.21111,500.4576 167.37279,500.46568 166.5656,500.39841 166.41736,500.30812 166.26911,500.21783 165.47516,500.14024 164.65303,500.13569 163.83089,500.13114 163.09097,500.09787 163.00876,500.06174 162.92654,500.02562 162.05209,499.95756 161.06553,499.91051 160.07896,499.86346 159.27178,499.7962 159.27178,499.76103 159.27178,499.72587 158.46459,499.65861 157.47803,499.61155 156.49146,499.5645 155.68428,499.50699 155.68428,499.48375 155.68428,499.4605 155.14615,499.38067 154.48844,499.30634 153.04177,499.14284 152.54525,498.9806 152.54511,498.67136 152.54505,498.54288 153.18407,498.45292 153.96516,498.47146 154.74625,498.48999 155.5049,498.43688 155.65105,498.35342 155.7972,498.26996 156.67166,498.17324 157.59428,498.13848 158.5169,498.10372 159.27178,498.04651 159.27178,498.01135 159.27178,497.97619 160.07896,497.90892 161.06553,497.86187 162.05209,497.81482 162.85928,497.74279 162.85928,497.7018 162.85928,497.66081 163.5992,497.58442 164.50355,497.53204 165.4079,497.47967 167.02227,497.36442 168.09105,497.27594 169.15983,497.18745 170.7742,497.06071 171.67855,496.99429 172.5829,496.92786 173.32282,496.84608 173.32282,496.81255 173.32282,496.77902 174.13001,496.71309 175.11657,496.66604 176.10314,496.61899 176.91033,496.55358 176.91033,496.52069 176.91033,496.48779 177.65025,496.43456 178.5546,496.40239 179.45895,496.37021 180.33982,496.25213 180.5121,496.13997 180.68438,496.02782 181.00509,496.04716 181.22479,496.18294 181.4445,496.31873 182.02498,496.3149 182.51475,496.17443 183.00452,496.03397 183.49099,495.92993 183.5958,495.94323 183.70061,495.95653 183.85363,495.94206 183.93585,495.91106 184.01806,495.88007 184.89252,495.81621 185.87908,495.76916 186.86564,495.72211 187.67283,495.65369 187.67283,495.61712 187.67283,495.58054 188.41275,495.51292 189.3171,495.46685 190.22145,495.42078 190.96137,495.35607 190.96137,495.32304 190.96137,495.29002 191.76856,495.20204 192.75512,495.12753 198.4633,494.69645 200.09458,494.5627 206.80617,493.97548 207.6283,493.90355 209.17541,493.77545 210.24419,493.69081 211.31297,493.60617 212.55738,493.48096 213.00956,493.41256 213.46173,493.34417 213.83169,493.38218 213.83169,493.49704 213.83169,493.6119 214.33619,493.7287 214.95279,493.75659 217.68205,493.88003 221.15617,494.09169 221.15617,494.13452 221.15617,494.16029 221.96336,494.2234 222.94993,494.27477 223.93649,494.32614 224.74368,494.39341 224.74368,494.42425 224.74368,494.45509 225.55086,494.52236 226.53743,494.57373 227.52399,494.6251 228.33118,494.69237 228.33118,494.72321 228.33118,494.75405 229.13836,494.82132 230.12493,494.87269 231.11149,494.92406 231.91868,494.98998 231.91868,495.01917 231.91868,495.04836 232.6586,495.11902 233.56295,495.17618 235.60847,495.30548 237.18578,495.53332 237.38002,495.72757 237.46142,495.80897 237.76171,495.75051 238.04733,495.59765 238.33294,495.44479 238.66268,495.41589 238.78009,495.53343 238.89749,495.65096 239.70913,495.76464 240.58374,495.78605 241.45835,495.80746 242.28807,495.88697 242.42756,495.96275 242.56705,496.03852 243.38734,496.08827 244.25042,496.0733 245.1135,496.05833 245.81979,496.12567 245.81995,496.22293 245.82011,496.3202 246.5938,496.42635 247.53926,496.45882 249.86156,496.53858 252.84577,496.73996 252.84577,496.8169 252.84577,496.8513 253.65296,496.91794 254.63952,496.965 255.62608,497.01205 256.43327,497.07931 256.43327,497.11448 256.43327,497.14964 257.18814,497.20684 258.11077,497.2416 259.03339,497.27636 259.90784,497.37016 260.054,497.45006 260.20015,497.52995 261.02589,497.58307 261.88897,497.5681 262.75205,497.55313 263.45834,497.61295 263.4585,497.70104 263.45866,497.78912 263.69422,497.86937 263.98197,497.87936 264.26972,497.88935 265.71593,498.00708 267.19577,498.14098 270.58152,498.44732 271.21978,498.50088 272.05385,498.54868 272.74828,498.58848 273.01777,499.07942 272.35281,499.0933 271.59171,499.1092 266.65022,499.53714 266.17825,499.62804 265.9094,499.67981 264.34671,499.82029 262.70562,499.94022 261.06453,500.06014 259.52002,500.19808 259.27338,500.24675 259.02673,500.29542 258.24524,500.34553 257.53672,500.35811 256.75897,500.37192 256.32172,500.49945 256.43327,500.67994 256.53489,500.84437 256.47557,500.9789 256.30144,500.9789 256.1273,500.9789 255.98483,500.8609 255.98483,500.71667 255.98483,500.385 253.17962,500.67622 253.04508,501.02186 252.99026,501.16266 252.81416,501.27786 252.65373,501.27786 252.4933,501.27786 252.43481,501.16013 252.52374,501.01624 252.73956,500.66702 249.95916,500.97542 249.48249,501.35357 249.22711,501.55616 249.10879,501.5382 249.10879,501.29682 249.10879,501.10256 248.99923,501.01133 248.86531,501.09409 248.7314,501.17685 247.99148,501.2772 247.22104,501.31708 246.45061,501.35696 245.82042,501.46535 245.82063,501.55794 245.82083,501.65054 245.01127,501.70166 244.02159,501.67155 243.03191,501.64145 242.27898,501.70871 242.34841,501.82103 242.41784,501.93336 241.6803,502.00919 240.70943,501.98956 239.73855,501.96992 238.94422,502.03719 238.94425,502.13904 238.94427,502.24088 238.03618,502.33162 236.92628,502.34066 234.36244,502.36156 231.76922,502.5788 231.76964,502.77265 231.76981,502.85487 230.9626,502.89754 229.97583,502.86749 228.98906,502.83744 228.18129,502.90471 228.18078,503.01697 228.18028,503.12924 227.47399,503.24461 226.61125,503.27336 225.15775,503.32179 223.78482,503.41961 219.5119,503.77918 218.60755,503.85528 216.69881,503.98318 215.27026,504.06341 213.84171,504.14363 212.53003,504.29756 212.35542,504.40548 212.18081,504.51339 212.03794,504.47843 212.03794,504.32779 Z"
       id="path910"
       inkscape:connector-curvature="0"
       transform="scale(0.26458333)" />
    <path
       style="opacity:1;fill:#15110f;fill-opacity:1;fill-rule:nonzero;stroke:#000000;stroke-width:0.29942924;stroke-miterlimit:4;stroke-dasharray:none;stroke-opacity:1;paint-order:normal"
       d="M 176.09782,502.19609 C 158.05724,500.60548 143.20274,499.21005 143.08783,499.09513 142.97291,498.98022 142.97145,498.79363 143.08459,498.68049 143.19772,498.56736 156.03425,497.36921 171.61021,496.01794 187.18616,494.66666 202.35169,493.34589 205.31138,493.08289 211.52238,492.53097 215.01302,492.48664 219.12648,492.90746 220.73609,493.07212 235.37165,494.3489 251.64994,495.74475 267.92822,497.14059 281.69269,498.3589 282.23763,498.45209 285.42936,498.99791 281.8718,499.40985 249.68566,502.22132 228.1435,504.10304 215.05243,505.1236 212.63586,505.10966 210.5623,505.09771 194.29832,503.8008 176.09782,502.19609 Z M 213.53273,504.24301 C 213.03376,504.0669 213.58028,504.02348 215.17701,504.11237 216.83592,504.20472 217.38549,504.15759 216.97076,503.95852 216.54284,503.75312 216.9891,503.69527 218.54029,503.75504 219.73238,503.80097 220.70774,503.7262 220.70774,503.58889 220.70774,503.45158 221.49331,503.36758 222.45346,503.40222 223.41361,503.43687 224.32307,503.38866 224.47447,503.29508 224.82058,503.08118 231.01973,502.66086 233.41347,502.689 234.83458,502.7057 234.98984,502.66787 234.16087,502.50691 233.45226,502.36933 234.56201,502.21899 237.59889,502.04118 240.0653,501.89677 242.75592,501.73249 243.57806,501.67612 246.91987,501.447 249.63795,501.29665 251.05202,501.26273 252.40064,501.23037 252.45911,501.20216 251.64994,500.97424 251.06769,500.81024 251.61448,500.7753 253.20858,500.87464 254.55911,500.95879 255.82703,500.92695 256.02618,500.80387 256.22533,500.68079 257.20558,500.58606 258.20452,500.59336 L 260.02077,500.60663 258.52598,500.38049 C 257.20199,500.1802 257.27032,500.16593 259.1239,500.25565 261.72118,500.38136 277.50984,499.15399 277.50984,498.82637 277.50984,498.56319 274.85918,498.43086 270.93275,498.49801 268.98828,498.53127 268.6373,498.48202 269.43796,498.28827 270.17289,498.11042 269.68351,498.06844 267.79369,498.1472 265.90866,498.22577 265.3716,498.17991 265.99994,497.99404 266.76308,497.7683 266.65163,497.73424 265.25254,497.76568 262.19499,497.83437 259.53629,497.69157 259.67563,497.46614 259.75186,497.34282 259.21984,497.28925 258.49338,497.34709 257.76692,497.40493 256.93894,497.34885 256.65343,497.22246 256.36792,497.09608 255.49773,497.02457 254.71968,497.06355 253.94164,497.10254 253.14952,497.03831 252.95942,496.92082 252.76933,496.80334 251.52247,496.71805 250.18864,496.7313 248.45427,496.74853 247.97637,496.68073 248.51087,496.49328 249.08972,496.29028 248.88745,496.24135 247.614,496.27634 244.53646,496.3609 241.89806,496.19627 242.06265,495.92996 242.15294,495.78388 241.45459,495.65564 240.51076,495.64499 239.56694,495.63434 237.9539,495.61574 236.92623,495.60366 235.89856,495.59158 235.05774,495.46768 235.05774,495.32832 235.05774,495.18897 234.48598,495.06708 233.78717,495.05746 233.08835,495.04784 231.50761,494.96975 230.27441,494.88394 229.0412,494.79812 227.3915,494.7287 226.6084,494.72966 225.8253,494.73062 225.01811,494.6252 224.81465,494.49539 224.41345,494.23943 222.8075,494.14004 218.16659,494.08396 215.88399,494.05638 215.4598,493.99437 216.37284,493.82174 217.12986,493.67862 216.00581,493.60644 213.30962,493.62504 210.96714,493.6412 209.05007,493.76507 209.04947,493.90031 209.04886,494.03555 208.3334,494.11309 207.45955,494.07261 206.58571,494.03213 205.70822,494.09946 205.50958,494.22222 205.31095,494.34499 204.5053,494.4113 203.71927,494.36958 202.93323,494.32786 202.12605,494.39512 201.92552,494.51906 201.72499,494.64299 200.92493,494.71775 200.14761,494.68519 199.37028,494.65263 198.53249,494.6974 198.28585,494.78468 197.57716,495.03547 188.38654,495.66362 188.19714,495.47422 188.10345,495.38053 187.84438,495.45527 187.62143,495.64031 187.37391,495.84573 186.69888,495.90585 185.88792,495.7947 185.15744,495.69457 184.48125,495.73971 184.38527,495.89501 184.28929,496.05031 183.50989,496.17799 182.65325,496.17875 179.6527,496.18139 177.20617,496.34804 176.85809,496.57349 176.66493,496.6986 175.09711,496.83291 173.37405,496.87196 171.65099,496.91101 170.31172,497.05717 170.39789,497.19676 170.48406,497.33635 169.76484,497.40652 168.79963,497.35269 167.83442,497.29887 166.90374,497.34395 166.73146,497.45287 166.55918,497.56179 164.8386,497.72239 162.90796,497.80975 160.97731,497.89712 159.30209,498.02749 159.18525,498.09948 159.06841,498.17146 157.56024,498.33054 155.83376,498.45298 153.81164,498.59639 152.90744,498.75879 153.29261,498.90937 153.86551,499.13335 153.86312,499.14401 153.23551,499.16414 152.87526,499.1757 152.49735,499.05062 152.39573,498.88619 152.15507,498.49679 149.0489,498.49679 148.80823,498.88619 148.69381,499.07133 149.34156,499.20755 150.5096,499.24399 151.54697,499.27635 153.13566,499.34494 154.04,499.39641 154.94435,499.44789 156.39852,499.48565 157.27148,499.48034 158.14445,499.47502 159.00614,499.5618 159.18636,499.67318 159.36658,499.78456 160.4685,499.85104 161.63509,499.82092 163.21488,499.78013 163.64172,499.84811 163.30772,500.08732 162.98072,500.32151 163.41714,500.35364 164.91919,500.20594 166.45568,500.05486 166.92428,500.09209 166.76335,500.35248 166.60242,500.61288 167.05925,500.64916 168.56124,500.49528 169.99636,500.34824 170.51643,500.38353 170.37146,500.6181 170.23179,500.84409 170.66233,500.93007 171.74544,500.89249 174.4231,500.79958 177.40112,500.96746 177.25546,501.20312 177.17924,501.32644 177.71125,501.38001 178.43772,501.32217 179.16418,501.26433 179.99216,501.31334 180.27767,501.43107 180.56318,501.54881 181.63761,501.6205 182.66528,501.59038 183.69294,501.56026 184.53377,501.6484 184.53377,501.78624 184.53377,501.92409 185.57638,502.00564 186.85069,501.96747 188.51521,501.91761 188.95717,501.9741 188.42023,502.16808 187.83102,502.38094 188.02086,502.42853 189.3171,502.39292 192.46442,502.30644 195.03327,502.47261 194.86089,502.75152 194.75862,502.917 195.33943,502.96224 196.29715,502.8634 197.30507,502.75937 197.97994,502.81849 198.1056,503.02181 198.23569,503.23231 198.98469,503.28281 200.23919,503.16567 201.3391,503.06296 202.17231,503.10293 202.17231,503.25841 202.17231,503.4087 203.21493,503.50043 204.48924,503.46226 206.18837,503.41136 206.60688,503.46677 206.05877,503.67007 205.5294,503.86642 205.85642,503.89821 207.17987,503.77905 208.42142,503.66727 209.04836,503.71906 209.04836,503.93341 209.04836,504.14241 209.50907,504.19286 210.35667,504.07668 211.1028,503.97441 211.90568,504.0372 212.22516,504.22279 212.53326,504.40178 213.12167,504.5389 213.53273,504.52751 L 214.28013,504.5068 Z"
       id="path912"
       inkscape:connector-curvature="0"
       transform="scale(0.26458333)" />
    <path
       style="opacity:1;fill:#15110f;fill-opacity:1;fill-rule:nonzero;stroke:#000000;stroke-width:0.29942924;stroke-miterlimit:4;stroke-dasharray:none;stroke-opacity:1;paint-order:normal"
       d="M 204.86294,503.79221 C 202.47875,503.57259 198.98093,503.2379 197.09002,503.04845 195.19911,502.85899 192.77754,502.64593 191.70877,502.57498 190.63999,502.50403 186.67132,502.16286 182.88949,501.81682 179.10767,501.47079 175.07173,501.13613 173.92074,501.07313 172.76975,501.01013 167.85936,500.61277 163.00876,500.19009 156.79242,499.64841 153.08655,499.46533 150.4525,499.56977 L 146.71552,499.71794 149.50854,499.37681 C 151.04469,499.18918 152.21311,498.94846 152.10501,498.84187 151.99692,498.73528 152.21991,498.64989 152.60054,498.65211 152.98118,498.65433 154.50339,498.50054 155.98323,498.31036 157.46308,498.12017 160.22097,497.83719 162.11188,497.68151 164.00279,497.52583 167.76967,497.20412 170.48272,496.9666 179.91691,496.14066 189.49117,495.33346 193.50252,495.02581 195.72229,494.85556 200.63268,494.43108 204.4145,494.08252 211.48215,493.43112 214.68305,493.4381 222.35201,494.12162 224.16071,494.28283 227.52399,494.54216 229.82597,494.69792 232.12795,494.85368 236.02936,495.1919 238.49576,495.44952 240.96217,495.70714 244.75258,496.04546 246.91889,496.20134 249.08521,496.35723 253.12115,496.70549 255.88765,496.97526 262.39373,497.60967 266.09544,497.88779 271.97911,498.18426 275.88112,498.38087 276.45949,498.4632 275.11817,498.6311 271.38553,499.09834 270.50074,499.16829 271.23171,498.93835 271.7317,498.78107 270.34621,498.58012 267.0463,498.33129 264.33325,498.12672 260.96996,497.83264 259.57233,497.67778 258.1747,497.52292 254.47509,497.19451 251.35098,496.94798 248.22686,496.70145 244.99811,496.43568 244.17597,496.35738 243.35384,496.27908 240.99954,496.08621 238.9442,495.92876 236.88886,495.77132 235.00542,495.56629 234.75878,495.47313 234.51214,495.37997 232.09058,495.15923 229.37753,494.98259 226.66448,494.80596 223.77206,494.6045 222.94993,494.53492 213.96009,493.77402 212.13037,493.73561 207.10513,494.20228 204.30987,494.46186 199.53401,494.8763 196.4921,495.12326 193.4502,495.37022 189.21247,495.72935 187.07491,495.92133 184.93736,496.1133 181.84314,496.37182 180.19887,496.49582 175.62719,496.84057 169.4517,497.36348 166.2973,497.67293 164.73524,497.82618 161.64102,498.10186 159.42126,498.28556 153.59327,498.76786 153.35696,498.93626 157.92646,499.35078 160.14623,499.55214 163.37498,499.8673 165.10147,500.05113 166.82795,500.23496 170.39303,500.53082 173.02387,500.70859 175.6547,500.88636 179.01798,501.135 180.49783,501.26112 181.97767,501.38724 185.27369,501.64769 187.82231,501.8399 190.37093,502.03211 193.19609,502.31563 194.10044,502.46994 195.00478,502.62425 198.099,502.90593 200.97648,503.0959 207.08647,503.49928 213.41584,504.20574 210.84211,504.19705 209.93776,504.194 207.24713,504.01182 204.86294,503.79221 Z"
       id="path914"
       inkscape:connector-curvature="0"
       transform="scale(0.26458333)" />
    <path
       style="opacity:1;fill:#15110f;fill-opacity:1;fill-rule:nonzero;stroke:#000000;stroke-width:0.29942924;stroke-miterlimit:4;stroke-dasharray:none;stroke-opacity:1;paint-order:normal"
       d="M 273.70223,499.26958 C 274.15667,499.20087 274.82932,499.2027 275.19702,499.27366 275.56472,499.34462 275.19291,499.40085 274.37078,499.3986 273.54864,499.39636 273.2478,499.3383 273.70223,499.26958 Z"
       id="path916"
       inkscape:connector-curvature="0"
       transform="scale(0.26458333)" />
    <path
       style="opacity:1;fill:#15110f;fill-opacity:1;fill-rule:nonzero;stroke:#000000;stroke-width:0.29942924;stroke-miterlimit:4;stroke-dasharray:none;stroke-opacity:1;paint-order:normal"
       d="M 208.45044,504.82847 C 208.45044,504.63066 207.80385,504.54742 206.73143,504.60718 205.78597,504.65986 204.84367,504.59668 204.63743,504.46677 204.43119,504.33686 203.48947,504.23177 202.54472,504.23325 201.59998,504.23472 200.08708,504.17015 199.18273,504.08976 198.27838,504.00937 196.664,503.87318 195.59523,503.78713 191.27955,503.43967 187.60781,503.12617 184.9822,502.88099 183.99564,502.78886 182.44853,502.65433 181.54418,502.58203 180.63983,502.50973 179.09272,502.38076 178.10616,502.29544 177.1196,502.21012 175.50522,502.07193 174.51866,501.98835 173.53209,501.90477 172.05225,501.77249 171.23011,501.69438 169.7389,501.5527 167.91463,501.38553 164.80251,501.10539 163.89816,501.02398 162.35105,500.87463 161.36449,500.7735 160.37792,500.67236 158.89808,500.56038 158.07594,500.52464 157.25381,500.48891 156.33931,500.35784 156.04373,500.23339 155.74814,500.10894 154.97461,500.07844 154.32477,500.1656 153.67493,500.25276 153.06801,500.20235 152.97606,500.05357 152.88203,499.90142 153.78691,499.78307 155.04426,499.78307 156.27372,499.78307 157.51451,499.69294 157.80158,499.58278 158.15742,499.44623 158.25472,499.4938 158.10734,499.73226 157.95446,499.97963 158.28728,500.08203 159.24416,500.08203 159.9883,500.08203 163.66222,500.34297 167.40842,500.66191 171.15462,500.98085 176.84306,501.45896 180.04939,501.72438 183.25572,501.9898 191.05853,502.66485 197.38898,503.22448 203.71942,503.78412 209.77333,504.29372 210.84211,504.35693 212.59217,504.46042 225.21131,503.52416 225.93951,503.23679 226.52456,503.00591 224.66249,503.10836 218.62931,503.63897 214.99711,503.95842 212.08438,504.08077 211.45431,503.94036 210.87096,503.81036 207.83758,503.48853 204.71346,503.22519 201.58934,502.96184 196.27536,502.48592 192.9046,502.16758 189.53385,501.84924 184.01806,501.38105 180.64731,501.12715 177.27655,500.87326 171.4917,500.3797 167.79209,500.03035 163.55171,499.62994 159.2011,499.41171 156.02116,499.4399 151.56673,499.47939 151.02033,499.43215 151.34917,499.03593 151.66582,498.65438 151.5908,498.58723 150.84786,498.58723 150.36733,498.58723 149.81273,498.74867 149.61542,498.94598 149.33639,499.22501 149.25456,499.2084 149.24716,498.87124 149.23937,498.51587 149.172,498.52394 148.87332,498.91605 148.48758,499.42246 146.56604,499.85243 146.56604,499.43233 146.56604,499.29638 145.89339,499.18515 145.07125,499.18515 144.07482,499.18515 143.5764,499.06056 143.57627,498.81145 143.57614,498.54849 144.01907,498.46845 145.07107,498.54135 145.93873,498.60147 146.56604,498.51932 146.56604,498.34558 146.56604,498.16949 147.05263,498.11148 147.74763,498.2047 148.3975,498.29186 149.17106,498.25645 149.46664,498.126 149.76222,497.99555 150.62819,497.9227 151.391,497.96411 152.15382,498.00551 152.86013,497.9064 152.96059,497.74385 153.06105,497.5813 153.67493,497.51963 154.32477,497.60679 154.97461,497.69395 155.74814,497.66344 156.04373,497.53899 156.33931,497.41454 157.25381,497.27649 158.07594,497.23221 158.89808,497.18793 160.37792,497.0826 161.36449,496.99813 162.35105,496.91367 163.89816,496.78297 164.80251,496.7077 165.70686,496.63242 167.25397,496.49694 168.24053,496.40662 169.22709,496.3163 170.7742,496.17609 171.67855,496.09505 172.5829,496.014 174.06275,495.88124 174.9671,495.80003 175.87144,495.71882 177.41855,495.58429 178.40512,495.50107 179.39168,495.41786 180.93879,495.28333 181.84314,495.20212 182.74749,495.1209 184.2946,494.98637 185.28116,494.90316 186.26772,494.81994 187.81483,494.68541 188.71918,494.6042 191.90608,494.31802 193.67193,494.16187 195.59523,493.99619 196.664,493.90412 198.21111,493.76959 199.03325,493.69723 206.7949,493.01411 207.27622,492.98931 213.0843,492.97336 218.2325,492.95922 219.83988,493.02243 223.8468,493.3966 224.83336,493.48873 226.38047,493.62547 227.28482,493.70047 231.86032,494.07992 233.16252,494.19239 237.74837,494.6042 238.65272,494.68541 240.19983,494.81994 241.18639,494.90316 242.17295,494.98637 243.72006,495.1209 244.62441,495.20212 245.52876,495.28333 247.07587,495.41786 248.06243,495.50107 249.049,495.58429 250.59611,495.71882 251.50046,495.80003 252.40481,495.88124 253.95192,496.01577 254.93848,496.09899 255.92504,496.18221 257.47215,496.31674 258.3765,496.39795 259.28085,496.47916 260.82796,496.61369 261.81452,496.69691 262.80109,496.78012 264.3482,496.91466 265.25254,496.99587 266.15689,497.07708 267.704,497.21054 268.69057,497.29246 269.67713,497.37438 271.15697,497.50423 271.97911,497.58101 272.80125,497.65779 274.21382,497.76456 275.11817,497.81827 276.02252,497.87198 277.00429,498.01656 277.29987,498.13955 277.59545,498.26255 278.36898,498.29187 279.01882,498.2047 279.66866,498.11754 280.27558,498.16795 280.36753,498.31673 280.45948,498.46551 281.03127,498.59576 281.63816,498.60618 283.43169,498.63698 281.89281,499.08853 279.13684,499.34014 277.83092,499.45936 276.64754,499.62439 276.50711,499.70686 276.36667,499.78934 275.62675,499.89091 274.86284,499.93257 273.19313,500.02364 269.60624,500.33545 265.10307,500.781 263.62741,500.927 262.17777,501.05707 258.3765,501.38452 257.30772,501.47659 255.76061,501.61112 254.93848,501.68348 254.11634,501.75584 252.56923,501.89037 251.50046,501.98244 250.43168,502.07451 248.88457,502.20904 248.06243,502.2814 245.74524,502.48534 242.84416,502.73424 241.03691,502.88414 240.13256,502.95916 238.61909,503.08667 237.67363,503.16752 236.72818,503.24836 235.14744,503.38177 234.16088,503.46398 233.17432,503.54619 231.52631,503.68561 230.49863,503.77378 229.47096,503.86196 227.93614,503.9348 227.08792,503.93565 226.2397,503.9365 225.47017,504.0594 225.37786,504.20877 225.28554,504.35814 224.539,504.41588 223.71888,504.33707 222.89876,504.25827 221.98665,504.29089 221.69196,504.40956 221.39728,504.52824 218.46555,504.68678 215.17701,504.76189 211.88846,504.837 209.02967,504.95405 208.82414,505.022 208.6186,505.08996 208.45044,505.00287 208.45044,504.82847 Z M 235.20722,502.44377 C 235.81911,502.18653 233.51815,502.3045 228.77961,502.7733 226.77522,502.97161 227.12253,502.9899 230.42389,502.85992 232.72587,502.76929 234.87837,502.58202 235.20722,502.44377 Z M 239.16842,501.95695 C 238.55182,501.89245 237.54283,501.89245 236.92623,501.95695 236.30963,502.02145 236.81412,502.07422 238.04733,502.07422 239.28053,502.07422 239.78502,502.02145 239.16842,501.95695 Z M 248.94436,501.57818 C 250.26813,501.57717 250.63662,501.49028 250.38487,501.23852 250.13311,500.98676 249.06626,500.98889 246.2144,501.24681 240.3487,501.77732 240.00707,501.84023 243.72754,501.70474 245.61845,501.63588 247.96602,501.57893 248.94436,501.57818 Z M 254.79591,500.86381 C 255.75144,500.84489 256.61966,500.74294 256.72527,500.63724 256.83088,500.53154 256.27026,500.47263 255.47944,500.50632 254.68863,500.54001 253.30168,500.59492 252.39733,500.62834 251.23417,500.67132 250.88354,500.77159 251.19901,500.97104 251.44429,501.12611 251.96303,501.17315 252.35177,501.07559 252.74051,500.97802 253.84037,500.88272 254.79591,500.86381 Z M 262.78398,500.23044 C 263.15275,500.206 263.55634,500.07656 263.68085,499.94281 263.80536,499.80905 262.96551,499.7847 261.81452,499.88869 260.66353,499.99269 259.11642,500.08079 258.3765,500.08448 257.37065,500.08949 257.14434,500.16763 257.47963,500.39415 257.7546,500.57993 258.73755,500.61546 260.02077,500.486 261.17176,500.36988 262.4152,500.25488 262.78398,500.23044 Z M 270.33777,499.7689 C 271.08323,499.78859 271.9447,499.61537 272.26461,499.38144 272.79797,498.99144 272.7159,498.93819 271.21533,498.7005 L 269.58744,498.44265 271.53067,498.25157 C 272.94732,498.11227 272.58275,498.08092 270.18536,498.1359 268.37666,498.17738 267.23314,498.11844 267.64421,498.00493 268.10881,497.87664 267.09074,497.7162 264.95359,497.58091 261.01401,497.33153 246.63374,496.07522 241.85618,495.56305 240.08701,495.37338 238.00178,495.30267 237.22232,495.4059 236.25106,495.53454 235.94624,495.50161 236.25358,495.30125 236.62591,495.0585 236.60054,495.00807 236.1041,495.00407 235.77524,495.00142 231.20118,494.66366 225.93951,494.2535 220.67784,493.84334 214.893,493.50725 213.0843,493.50664 207.84388,493.50488 150.79422,498.37114 153.96526,498.54942 154.33523,498.57022 154.63792,498.72177 154.63792,498.88619 154.63792,499.25088 156.04286,499.28859 156.18254,498.92765 156.27476,498.68935 160.23408,498.30801 178.40512,496.78727 182.18694,496.47077 190.99874,495.72494 197.9869,495.12987 213.6831,493.79327 216.07377,493.84531 239.09368,496.02471 244.16333,496.50467 245.91167,496.65773 259.87129,497.84368 264.72189,498.25576 269.21268,498.67371 269.85082,498.77245 271.41397,499.01432 270.65943,499.44725 269.0006,499.26028 268.29744,499.18102 267.63946,499.24994 267.53842,499.41343 267.43737,499.57692 266.71355,499.6495 265.92992,499.57471 264.82755,499.4695 264.60662,499.51502 264.95359,499.77587 265.24194,499.99265 266.04235,500.04523 267.19577,499.92314 268.18234,499.81871 269.59623,499.7493 270.33777,499.7689 Z M 275.57413,499.17299 C 275.67988,499.00187 275.99052,498.93154 276.26443,499.01669 276.53834,499.10183 276.96424,499.02735 277.21088,498.85117 277.59115,498.57953 277.58124,498.55586 277.14572,498.69545 276.86324,498.786 276.5526,498.73142 276.45542,498.57418 276.06088,497.93581 273.02546,498.37508 273.02546,499.07054 273.02546,499.56669 275.27492,499.65711 275.57413,499.17299 Z M 152.91891,498.6882 C 152.71338,498.60526 152.37705,498.60526 152.17151,498.6882 151.96598,498.77113 152.13414,498.83899 152.54521,498.83899 152.95628,498.83899 153.12444,498.77113 152.91891,498.6882 Z"
       id="path918"
       inkscape:connector-curvature="0"
       transform="scale(0.26458333)" />
  </g>
</svg>
